<svg fill="none" height="24" viewBox="0 0 24 24" width="24" xmlns="http://www.w3.org/2000/svg"><g stroke="#292d32" stroke-linecap="round" stroke-linejoin="round" stroke-width="1.5"><path d="m21.81 3.94012c-1.54 3.84-5.4 9.05998-8.63 11.64998l-1.97 1.58c-.25.18-.5.34-.78.45 0-.18-.01-.38-.04-.57-.11-.84-.49-1.62-1.16-2.29-.68-.68-1.51-1.08-2.36-1.19-.2-.01-.4-.03-.6-.01.11-.31.28-.6.49-.84l1.56-1.97c2.58-3.22998 7.82-7.10998 11.65-8.63998.59-.22 1.16-.06 1.52.31.38.37.56.94.32 1.52z"/><path d="m10.43 17.6201c0 1.1-.42 2.1499-1.21 2.9499-.61.61-1.44 1.0301-2.43 1.1601l-2.46.27c-1.34.15-2.49-.9901-2.33-2.3501l.27-2.4599c.24-2.19 2.07-3.59 4.01-3.63.2-.01.41-.0001.6.0099.85.11 1.68.5001 2.36 1.1901.67.67 1.05 1.4499 1.16 2.2899.01.19.03.3801.03.5701z"/><path d="m14.24 14.47c0-2.61-2.12-4.73001-4.73001-4.73001"/></g></svg>